<?xml version="1.0" encoding="utf-8"?>
<!-- Generator: Adobe Illustrator 23.0.1, SVG Export Plug-In . SVG Version: 6.00 Build 0)  -->
<svg version="1.1" id="Capa_1" xmlns="http://www.w3.org/2000/svg" xmlns:xlink="http://www.w3.org/1999/xlink" x="0px" y="0px"
	 viewBox="0 0 600 600" style="enable-background:new 0 0 600 600;" xml:space="preserve">
<style type="text/css">
	.st0{clip-path:url(#SVGID_2_);}
</style>
<g>
	<defs>
		<rect id="SVGID_1_" x="21" y="73" width="558" height="439.81"/>
	</defs>
	<clipPath id="SVGID_2_">
		<use xlink:href="#SVGID_1_"  style="overflow:visible;"/>
	</clipPath>
	<g class="st0">
		<g>
			<path d="M60.94,463.78c55.5-95.8,110.5-190.73,165.77-286.14c0.87,1.3,1.43,2.04,1.89,2.84c7.74,13.29,15.42,26.61,23.24,39.86
				c1.21,2.05,0.7,3.52-0.33,5.31c-18.24,31.57-36.44,63.16-54.65,94.74c-26.79,46.49-53.61,92.97-80.31,139.51
				c-1.65,2.89-3.42,4-6.79,3.96c-14.63-0.2-29.26-0.08-43.9-0.08C64.59,463.78,63.32,463.78,60.94,463.78z"/>
			<path d="M248.01,398.45c3.88-6.81,7.38-12.96,10.9-19.11c4.44-7.75,9-15.42,13.27-23.27c1.38-2.53,3.14-3.02,5.73-3.02
				c53.28,0.05,106.56,0.04,159.84,0.04c36.38,0,72.76,0,109.14,0c1.26,0,2.53,0,4.48,0c-0.83,1.76-1.32,3-1.98,4.14
				c-7.42,12.98-14.91,25.92-22.26,38.93c-1.12,1.98-2.47,2.61-4.65,2.61c-90.31-0.04-180.62-0.04-270.92-0.05
				C250.64,398.74,249.71,398.59,248.01,398.45z"/>
			<path d="M214.63,119.15c8.37,0,15.89,0.01,23.41,0c8.61-0.01,17.22,0.01,25.83-0.11c2.19-0.03,3.46,0.65,4.6,2.62
				c21.33,37.1,42.75,74.16,64.15,111.22c18.88,32.69,37.77,65.38,56.65,98.07c0.52,0.91,0.98,1.86,1.73,3.29
				c-1.56,0.15-2.67,0.35-3.78,0.35c-14.96,0.09-29.92,0.1-44.88,0.26c-2.46,0.03-3.84-0.76-5.09-2.94
				c-18.55-32.27-37.21-64.47-55.82-96.7c-21.3-36.88-42.58-73.77-63.86-110.65C216.67,123.02,215.85,121.42,214.63,119.15z"/>
			<path d="M136.98,463.59c42.59-73.89,84.77-147.09,127.25-220.79c0.9,1.22,1.64,2.04,2.19,2.98
				c7.56,13.01,15.04,26.06,22.67,39.02c1.26,2.14,1.27,3.74,0.02,5.89c-20.06,34.59-40.05,69.23-60.05,103.87
				c-12.74,22.07-25.52,44.12-38.18,66.23c-1.3,2.28-2.8,3.06-5.38,3.04c-14.84-0.11-29.69-0.05-44.54-0.06
				C139.93,463.78,138.89,463.68,136.98,463.59z"/>
			<path d="M303.4,142.18c1.69-0.13,2.82-0.28,3.95-0.29c14.96-0.05,29.92-0.03,44.88-0.15c2.33-0.02,3.65,0.72,4.84,2.79
				c35.58,61.8,71.23,123.57,106.86,185.34c0.74,1.28,1.41,2.6,2.38,4.4c-1.5,0.14-2.51,0.31-3.52,0.31
				c-15.07,0.09-30.13,0.1-45.2,0.28c-2.49,0.03-3.86-0.81-5.1-2.96c-22.02-38.33-44.12-76.62-66.21-114.91
				c-13.65-23.67-27.31-47.34-40.95-71.01C304.72,144.92,304.21,143.78,303.4,142.18z"/>
			<path d="M210.3,463.78c2.72-4.84,4.95-8.85,7.22-12.83c5.65-9.9,11.39-19.75,16.95-29.7c1.33-2.38,2.94-3.18,5.65-3.18
				c70.47,0.07,140.94,0.05,211.41,0.04c1.26,0,2.52,0,4.43,0c-0.78,1.8-1.2,3.06-1.85,4.2c-7.37,12.88-14.83,25.71-22.12,38.63
				c-1.25,2.21-2.71,2.88-5.15,2.88c-70.58-0.06-141.16-0.04-211.74-0.04C213.83,463.78,212.57,463.78,210.3,463.78z"/>
		</g>
	</g>
</g>
</svg>
