<?xml version="1.0" encoding="utf-8"?>
<!-- Generator: Adobe Illustrator 23.0.1, SVG Export Plug-In . SVG Version: 6.00 Build 0)  -->
<svg version="1.1" id="Capa_1" xmlns="http://www.w3.org/2000/svg" xmlns:xlink="http://www.w3.org/1999/xlink" x="0px" y="0px"
	 viewBox="0 0 600 300" style="enable-background:new 0 0 600 300;" xml:space="preserve">
<g>
	<g>
		<path d="M224.43,122.55c0-4.85,0-9.83,0-14.96c-1.99,0-3.93,0-5.96,0c0-1.09,0-2.05,0-3.19c4.78-0.83,9.38-2.8,14.54-2.73
			c0,17.64,0,35.15,0,52.84c1.92,0,3.7,0,5.47,0c0.57,1.74,0.11,2.91-1.38,3.63c-1.36,0.66-2.69,1.44-4.12,1.87
			c-3.03,0.92-5.93-0.28-7.64-2.94c-0.23-0.36-0.46-0.72-0.5-0.77c-2.4,1.22-4.57,2.76-6.98,3.46c-7.8,2.26-15.68-2.21-18.04-10.01
			c-1.41-4.66-1.43-9.39-0.1-14.05c2.19-7.67,9.54-13.15,17.94-13.41C219.9,122.2,222.14,122.45,224.43,122.55z M224.5,139.52
			c0-3.82,0-7.63,0-11.45c0-0.65,0.05-1.22-0.83-1.44c-5.8-1.45-11.6,0.29-14.37,6.52c-1.76,3.96-1.97,8.18-1.4,12.39
			c1.14,8.44,8.57,11.94,15.54,7.46c0.79-0.51,1.1-1.07,1.08-2.02C224.47,147.16,224.5,143.34,224.5,139.52z"/>
		<path d="M44.89,159.16c-0.1-0.18-0.14-0.22-0.15-0.26c-0.32-2.9-0.32-2.89,2.46-3.6c1.36-0.35,3.18-0.37,3.91-1.26
			c0.68-0.83,0.21-2.62,0.21-3.99c0.01-11.52,0-23.04,0-34.55c0-0.53,0-1.07,0-1.66c-2.26-0.56-4.42-1.1-6.6-1.64
			c0-1.08,0-2.05,0-3.14c12.47,0,24.88,0,37.37,0c0,4.84,0,9.62,0,14.61c-0.72,0-1.4-0.08-2.05,0.02c-1.07,0.16-1.42-0.38-1.69-1.3
			c-0.74-2.58-1.55-5.15-2.4-7.7c-0.13-0.39-0.64-0.91-1-0.93c-4.84-0.25-9.69-0.41-14.67-0.6c0,6.14,0,12.23,0,18.45
			c5.06-0.43,10.11-0.87,15.29-1.31c0,2.12,0,4.14,0,6.35c-5.08-0.41-10.17-0.82-15.34-1.24c0,6.57,0,12.97,0,19.44
			c1.88,0,3.72,0.04,5.56-0.01c3.33-0.09,6.66-0.28,9.99-0.34c1.03-0.02,1.44-0.43,1.73-1.35c0.82-2.56,1.84-5.06,2.55-7.65
			c0.41-1.48,1.11-2.02,2.56-1.77c0.38,0.06,0.78,0.01,1.43,0.01c-0.18,5.17-0.36,10.28-0.54,15.46
			C70.55,159.16,57.73,159.16,44.89,159.16z"/>
		<path d="M375.39,155.9c0,1.12,0,2.13,0,3.24c-6.98,0-13.91,0-21.08,0c0-0.86-0.09-1.73,0.04-2.57c0.05-0.33,0.54-0.73,0.91-0.83
			c1.39-0.41,2.82-0.71,4.38-1.08c-1.11-3.11-2.15-6.09-3.27-9.05c-0.12-0.31-0.72-0.62-1.1-0.62c-5.24-0.04-10.48-0.04-15.72,0
			c-0.41,0-1.04,0.37-1.19,0.73c-1.19,2.83-2.29,5.71-3.49,8.74c1.65,0.37,3.18,0.8,4.74,1.05c1.26,0.2,1.79,0.75,1.59,2.02
			c-0.08,0.52-0.06,1.05-0.09,1.64c-6.03,0-11.94,0-17.94,0c0-1.11,0-2.15,0-3.27c1.79-0.43,3.52-0.95,5.29-1.24
			c1.1-0.18,1.54-0.76,1.9-1.7c5.4-14.21,10.84-28.41,16.21-42.63c0.5-1.33,1.07-1.91,2.58-1.84c3.3,0.14,3.31,0.04,4.42,3.13
			c4.94,13.81,9.88,27.61,14.78,41.43c0.35,0.99,0.82,1.51,1.89,1.69C371.93,155.02,373.58,155.48,375.39,155.9z M354.59,140.69
			c-2.32-6.46-4.6-12.81-7.02-19.56c-2.54,6.74-4.94,13.1-7.37,19.56C345.08,140.69,349.75,140.69,354.59,140.69z"/>
		<path d="M486.4,159.16c0-1.04,0-2,0-3.03c1.26-0.4,2.53-0.74,3.75-1.24c0.37-0.15,0.82-0.71,0.82-1.08
			c0.04-6.71,0.14-13.43-0.02-20.14c-0.12-4.75-3.27-6.97-8.16-6.06c-0.72,0.13-1.43,0.33-2.12,0.57c-4.45,1.57-4.73,1.97-4.73,6.63
			c0,6.13,0.03,12.25-0.03,18.38c-0.01,1.12,0.26,1.76,1.4,1.94c0.38,0.06,0.75,0.21,1.13,0.32c2.44,0.74,2.57,0.98,1.95,3.69
			c-6.33,0-12.67,0-18.98,0c-0.08-0.17-0.15-0.26-0.16-0.35c-0.29-2.61-0.28-2.59,2.21-3.23c1.26-0.32,2.94-0.37,3.6-1.2
			c0.63-0.79,0.21-2.44,0.21-3.71c0.01-6.62,0-13.23,0-19.85c0-0.52,0-1.05,0-1.71c-2.07,0-3.96,0-6.06,0c0-0.9-0.06-1.67,0.03-2.43
			c0.04-0.3,0.37-0.75,0.63-0.81c4.15-0.89,8.31-1.74,12.47-2.57c0.46-0.09,0.95-0.01,1.57-0.01c0,1.15,0,2.1,0,3.32
			c0.93-0.63,1.64-1.12,2.36-1.58c3.84-2.45,7.99-3.36,12.49-2.5c5.1,0.97,8.69,5.11,8.75,10.32c0.08,6.76,0.06,13.53,0,20.29
			c-0.01,1.22,0.32,1.73,1.52,1.93c1.53,0.25,3.03,0.7,4.57,1.07c0,1.04,0,2,0,3.03C499.17,159.16,492.83,159.16,486.4,159.16z"/>
		<path d="M188.76,154.58c1.97,0,3.68,0,5.43,0c0.45,1.54,0.19,2.64-1.25,3.48c-2.01,1.17-4.04,2.17-6.44,2.21
			c-2.74,0.04-4.7-1.12-5.87-3.6c-0.12-0.26-0.24-0.53-0.37-0.79c-0.02-0.03-0.09-0.04,0.11,0.04c-2.4,1.21-4.59,2.49-6.92,3.44
			c-2.78,1.13-5.75,1.19-8.68,0.62c-5.16-1.01-8.33-4.7-8.41-9.99c-0.11-6.81-0.04-13.62-0.05-20.43c0-0.54,0-1.07,0-1.71
			c-2.04-0.5-4.02-0.99-6.06-1.49c0-1,0-1.96,0-2.99c4.86,0,9.64,0,14.61,0c0,0.57,0,1.1,0,1.62c0,7.59-0.01,15.19,0,22.78
			c0.01,6.09,3,8.48,8.93,7.15c0.76-0.17,1.52-0.4,2.24-0.7c3.85-1.6,4.17-2.11,4.17-6.25c0-6.22-0.04-12.45,0.04-18.67
			c0.02-1.24-0.38-1.8-1.52-1.99c-0.33-0.06-0.66-0.19-0.98-0.3c-2.43-0.75-2.43-0.75-2.07-3.6c4.3,0,8.61,0,13.09,0
			C188.76,133.77,188.76,144.09,188.76,154.58z"/>
		<path d="M515.4,132.89c-2.31-1.5-3.65-3.53-4.04-6.12c-0.07-0.47,0.29-1.3,0.67-1.48c6.3-2.97,12.86-4.08,19.68-2.16
			c4.89,1.37,7.66,4.75,7.82,9.8c0.21,6.51,0.11,13.02,0.15,19.54c0,0.63,0,1.26,0,2.08c1.9,0,3.68,0,5.41,0
			c0.57,1.7,0.08,2.75-1.28,3.61c-2.12,1.34-4.31,2.28-6.88,2.1c-2.46-0.17-4.22-1.41-5.27-3.16c-2.74,1.01-5.31,2.2-8.01,2.88
			c-2.67,0.67-5.45,0.47-8.1-0.5c-3.58-1.31-6-3.61-6.46-7.59c-0.45-3.92,0.59-7.28,3.78-9.78c2.91-2.28,6.37-3.17,9.93-3.65
			c2.66-0.35,5.35-0.5,8.19-0.75c0.03-2.91,0.29-5.89-0.82-8.74c-1.19-3.07-5.41-4.11-7.86-1.99
			C520.06,128.92,517.78,130.85,515.4,132.89z M531.03,141.62c-3.29-0.09-6.36,0.21-9.05,1.9c-1.2,0.75-2.33,1.86-3.05,3.07
			c-1.98,3.33-0.83,7.11,2.41,8.17c3.16,1.03,6.2,0.57,8.93-1.37c0.37-0.26,0.72-0.85,0.72-1.29
			C531.05,148.67,531.03,145.25,531.03,141.62z"/>
		<path d="M304.14,141.03c0.03,8.87-4.94,16.33-12.63,18.45c-12.74,3.51-23.3-4.65-23.94-16.96c-0.44-8.44,3.32-15.45,10.29-18.57
			c12.14-5.43,25.22,2.04,26.16,15.28C304.07,139.87,304.11,140.51,304.14,141.03z M276.61,142.07c0.05,3.23,0.47,7.22,2.78,10.71
			c3.21,4.86,9.82,4.78,12.99-0.1c1.67-2.57,2.37-5.46,2.63-8.46c0.39-4.54,0.16-9-1.88-13.19c-1.5-3.07-3.85-4.93-7.38-4.87
			c-3.59,0.06-5.9,2.06-7.33,5.21C276.98,134.51,276.6,137.84,276.61,142.07z"/>
		<path d="M397.59,156.13c0,1.05,0,2,0,3.03c-6.93,0-13.76,0-20.67,0c0-1.04,0-2,0-3.04c1.54-0.37,3.04-0.82,4.57-1.07
			c1.17-0.19,1.46-0.72,1.46-1.86c-0.04-10.63-0.03-21.26-0.03-31.89c0-4.02,0-8.03,0-12.05c0-0.52,0-1.05,0-1.69
			c-2.05,0-3.95,0-6.08,0c0-0.91-0.04-1.72,0.02-2.52c0.02-0.26,0.3-0.67,0.52-0.71c4.39-0.91,8.79-1.77,13.19-2.64
			c0.23-0.05,0.48,0.02,0.99,0.06c0,0.56,0,1.12,0,1.68c0,16.55,0.02,33.11-0.03,49.66c0,1.29,0.38,1.81,1.62,2
			C394.65,155.35,396.11,155.78,397.59,156.13z"/>
		<path d="M116.88,133.21c-0.35,0.08-0.49,0.13-0.63,0.14c-2.35,0.13-2.35,0.13-3.14-2.14c-0.31-0.88-0.71-1.73-0.9-2.64
			c-0.34-1.62-1.24-2.46-2.91-2.42c-2.05,0.05-4.11-0.01-6.14,0.24c-1.7,0.21-2.94,1.21-3.39,3.02c-0.44,1.77,0,3.25,1.44,4.29
			c1.22,0.88,2.55,1.61,3.88,2.31c3.11,1.64,6.4,2.99,9.33,4.9c4.25,2.77,5.65,7.09,4.3,11.63c-0.69,2.33-2.09,4.19-4.25,5.19
			c-2.1,0.97-4.35,1.74-6.62,2.22c-4.09,0.87-12.46,0.04-16.49-1.38c0-3.33,0-6.68,0-10.05c0.19-0.06,0.32-0.13,0.46-0.14
			c2.72-0.11,2.72-0.11,3.65,2.47c0.3,0.83,0.72,1.63,0.87,2.49c0.37,2.15,1.6,3.05,3.73,2.9c2.58-0.18,5.17-0.19,7.73-0.5
			c1.86-0.23,3.01-1.49,3.39-3.39c0.38-1.91-0.06-3.62-1.7-4.66c-1.89-1.2-3.96-2.1-5.93-3.17c-2.61-1.41-5.35-2.66-7.77-4.35
			c-3.17-2.21-4.19-5.56-3.8-9.32c0.28-2.72,1.75-4.73,4.05-6.15c2.43-1.5,5.12-2.2,7.93-2.41c3.93-0.3,7.82-0.01,11.67,0.9
			c0.88,0.21,1.3,0.56,1.27,1.56C116.83,127.57,116.88,130.35,116.88,133.21z"/>
		<path d="M402.73,148.47c3.24-0.23,3.23-0.23,4.23,2.54c0.26,0.74,0.67,1.45,0.78,2.21c0.35,2.41,1.83,3.21,4.06,3.07
			c2.53-0.16,5.08-0.21,7.58-0.55c1.8-0.25,2.9-1.52,3.26-3.34c0.37-1.84,0.01-3.54-1.58-4.57c-1.92-1.24-4.03-2.18-6.04-3.27
			c-2.61-1.42-5.45-2.55-7.77-4.35c-6.32-4.89-4.95-13.61,2.46-16.56c4.71-1.88,9.6-1.68,14.48-0.96c4.15,0.62,4.13,0.71,4.13,4.88
			c0,1.86,0,3.71,0,5.54c-2.54,0.72-2.97,0.52-3.74-1.72c-0.32-0.92-0.72-1.83-0.93-2.78c-0.36-1.59-1.21-2.48-2.9-2.43
			c-2.05,0.06-4.11-0.01-6.14,0.24c-1.69,0.21-2.94,1.19-3.4,3.01c-0.45,1.78,0,3.26,1.44,4.3c1.26,0.91,2.65,1.63,4.01,2.38
			c3.38,1.85,6.9,3.47,10.12,5.57c2.97,1.94,3.99,5.07,3.78,8.59c-0.23,3.86-2.21,6.6-5.66,8.07c-2.08,0.89-4.36,1.54-6.61,1.78
			c-4.8,0.51-9.58,0.01-14.29-1.09c-0.98-0.23-1.33-0.63-1.3-1.67C402.78,154.42,402.73,151.49,402.73,148.47z"/>
		<path d="M148.66,157.98c-4.41,2.25-8.84,2.9-13.44,1.79c-4.19-1.01-6.42-3.97-6.51-8.81c-0.14-7.05-0.07-14.11-0.09-21.16
			c0-0.68,0-1.35,0-2.18c-1.28,0-2.43,0-3.65,0c-0.29-1.34-0.21-2.27,0.92-3.17c2.76-2.19,5.43-4.51,8.05-6.86
			c0.95-0.85,1.9-1.06,3.21-0.76c0,2.24,0,4.47,0,6.67c3.5,0,6.85,0,10.28,0c0,1.25,0,2.55,0,4.02c-3.37,0-6.72,0-10.15,0
			c-0.04,0.58-0.11,1.01-0.11,1.43c0,6.66-0.01,13.32,0.01,19.99c0,0.97,0.02,1.97,0.21,2.92c0.64,3.13,2.72,4.54,5.91,4
			c1.34-0.22,2.65-0.64,4.14-1.02C147.83,155.82,148.23,156.85,148.66,157.98z"/>
		<path d="M436.63,129.12c-0.22-0.24-0.27-0.28-0.28-0.31c-0.27-2.73-0.27-2.73,2.37-3.35c2.57-0.61,5.12-1.28,7.71-1.81
			c1.42-0.29,2.88-0.33,4.56-0.5c0,0.77,0,1.29,0,1.81c0,9.45,0.02,18.9-0.02,28.35c0,1.08,0.26,1.6,1.38,1.73
			c0.96,0.11,1.89,0.55,2.86,0.64c1.62,0.14,2.2,0.93,1.91,2.48c-0.05,0.28-0.05,0.58-0.08,0.98c-6.86,0-13.68,0-20.62,0
			c0-0.92,0-1.87,0-3c1.65-0.4,3.4-0.78,5.11-1.28c0.37-0.11,0.87-0.67,0.87-1.02c0.05-8.17,0.04-16.34,0.04-24.72
			C440.39,129.12,438.42,129.12,436.63,129.12z"/>
		<path d="M242.86,159.14c-0.06-0.21-0.13-0.35-0.14-0.49c-0.2-2.48-0.2-2.48,2.23-3.07c3.81-0.92,3.81-0.92,3.81-4.77
			c0-6.66,0-13.32,0-19.98c0-0.53,0-1.05,0-1.72c-2.05,0-3.94,0-6.06,0c0-0.9-0.06-1.66,0.03-2.41c0.04-0.3,0.34-0.77,0.6-0.83
			c4.2-0.9,8.4-1.74,12.61-2.58c0.37-0.07,0.77,0.04,1.39,0.08c0,0.6,0,1.17,0,1.73c0,9.26,0.04,18.51-0.04,27.77
			c-0.01,1.48,0.44,2.08,1.86,2.29c1.4,0.2,2.76,0.62,4.2,0.95c0,1,0,1.96,0,3.03C256.5,159.14,249.68,159.14,242.86,159.14z"/>
		<path d="M284.67,204.48c-3.16-1.61-3.64-4.02-0.08-6.89c-0.79-0.98-1.83-1.85-2.3-2.96c-0.42-1-0.43-2.3-0.26-3.41
			c0.49-3.19,5.04-4.72,7.72-4.16c2.37,0.5,4.77,0.89,7.4,1.37c0.01,0.15,0.03,0.59,0.06,1.14c-1.01,0-1.88,0-2.44,0
			c-0.04,1.6,0.17,3.15-0.18,4.57c-0.51,2.09-2.89,3.64-5.01,3.68c-0.83,0.01-1.73-0.19-2.48,0.05c-0.79,0.26-1.67,0.78-2.11,1.45
			c-0.63,0.96-0.06,1.87,1.14,2.02c2.51,0.33,5.04,0.61,7.56,0.88c3.18,0.34,4.57,2.88,3.15,5.79c-1.89,3.91-6.07,5.23-10.2,4.68
			c-1.27-0.17-2.66-0.46-3.7-1.14c-3.16-2.09-1.88-5.27,0.96-6.68C284.1,204.77,284.31,204.66,284.67,204.48z M288.93,204.53
			c-0.71,0-1.25-0.04-1.79,0.01c-1.49,0.13-2.85,1.14-3.16,2.4c-0.29,1.19,0.04,2.25,1.01,3.01c2.09,1.63,6.26,2.12,8.63-0.09
			c1.05-0.97,1.44-2.25,0.88-3.53c-0.28-0.63-1.13-1.22-1.82-1.39C291.42,204.62,290.08,204.63,288.93,204.53z M284.86,192.24
			c-0.01,2.28,1.4,4.23,3.17,4.39c1.94,0.18,3.26-0.86,3.79-2.99c0.47-1.88-0.41-4.2-2.07-4.95
			C287.14,187.54,284.86,189.22,284.86,192.24z"/>
		<path d="M328.38,187.29c0-2.29,0.06-4.54-0.05-6.77c-0.02-0.43-0.69-0.93-1.18-1.2c-0.43-0.24-1.01-0.2-1.53-0.29
			c-0.03-0.17-0.06-0.34-0.08-0.52c1.99-0.56,3.98-1.13,6.04-1.71c0,1.08,0,2.03,0,2.99c0,6.57-0.03,13.13,0.01,19.7
			c0.02,2.35,0.1,2.35,2.29,2.89c-0.24,0.75-0.24,0.75-5.27,1.83c-0.12-0.4-0.24-0.81-0.36-1.22c-4.29,1.65-7.5,1.1-9.62-1.24
			c-2.85-3.15-2.35-7.71-0.99-10.05C319.94,187.76,323.9,185.43,328.38,187.29z M328.38,195.46c0-1.62,0.02-3.23-0.01-4.85
			c-0.01-0.35-0.1-0.78-0.31-1.04c-1.34-1.62-4.29-1.72-5.9-0.3c-1.96,1.73-2.18,4.01-2.13,6.38c0.06,2.65,0.99,4.84,3.44,6.14
			c2.73,1.45,4.91,0.19,4.91-2.81C328.38,197.81,328.38,196.64,328.38,195.46z"/>
		<path d="M230.89,194.29c-2.65,0-5.23-0.02-7.82,0.03c-0.28,0.01-0.69,0.35-0.8,0.63c-0.63,1.57-1.19,3.16-1.77,4.75
			c-0.84,2.3-0.37,3.02,2.18,3.17c0,0.37,0,0.76,0,1.21c-2.51,0-4.95,0.03-7.39-0.04c-0.31-0.01-0.6-0.5-0.84-0.95
			c2.99,0,3.42-2.4,4.15-4.21c2.27-5.6,4.35-11.27,6.51-16.92c0.36-0.95,0.7-1.91,1.19-2.8c0.27-0.49,0.81-0.84,1.23-1.25
			c0.3,0.44,0.69,0.85,0.88,1.33c1.49,3.84,2.94,7.69,4.4,11.53c1.29,3.39,2.56,6.78,3.85,10.17c0.41,1.09,1.22,1.66,2.36,1.89
			c0.3,0.06,0.53,0.5,0.79,0.77c-0.3,0.15-0.6,0.44-0.9,0.44c-2.4,0.04-4.8,0.05-7.19,0c-0.32-0.01-0.63-0.37-0.95-0.56
			c0.29-0.23,0.57-0.62,0.89-0.65c1.26-0.14,1.62-0.84,1.3-1.93C232.31,198.73,231.6,196.58,230.89,194.29z M226.74,183.35
			c-1.17,3.04-2.27,5.89-3.4,8.82c2.25,0,4.34,0,6.69,0C228.93,189.22,227.88,186.4,226.74,183.35z"/>
		<path d="M240.7,178.47c1.98-0.55,3.96-1.1,5.91-1.64c0,1.87,0,3.69,0,5.5c0,1.85,0,3.69,0,5.62c0.63-0.21,1.14-0.35,1.62-0.55
			c3.39-1.46,7.08-0.17,8.98,3.04c2.32,3.93,1.67,7.09-0.81,10.2c-2.42,3.04-5.69,4.36-9.68,3.33c-0.74-0.19-1.6-0.08-2.37,0.07
			c-0.82,0.16-1.14,0.08-1.13-0.87c0.08-7.53,0.14-15.06,0.12-22.59c0-0.45-0.71-0.98-1.21-1.31c-0.35-0.23-0.9-0.18-1.36-0.25
			C240.75,178.85,240.73,178.66,240.7,178.47z M246.62,195.5c0,1.42-0.12,2.85,0.05,4.25c0.1,0.8,0.47,1.77,1.06,2.25
			c1.28,1.05,4.33,0.72,5.36-0.61c0.83-1.07,1.56-2.36,1.85-3.67c0.74-3.34,0.02-6.77-3.25-8.61c-2.73-1.54-5.06-0.22-5.07,2.86
			C246.61,193.15,246.61,194.33,246.62,195.5z"/>
		<path d="M344.5,204.29c-4.87-0.15-8.61-4.07-8.55-8.88c0.07-5.06,3.62-8.66,8.51-8.68c4.81-0.02,8.52,3.84,8.6,8.78
			C353.14,200.24,349.12,204.29,344.5,204.29z M349.83,196.11c-0.02-2.79-1.45-5.21-2.66-6.44c-2.29-2.32-5.58-1.57-6.96,1.31
			c-1.61,3.34-1.18,6.53,0.81,9.42c2.13,3.1,5.65,3.43,7.6-0.31C349.25,198.88,349.44,197.44,349.83,196.11z"/>
		<path d="M270.01,204.29c-4.58,0-8.79-4.13-8.65-8.78c0.15-5.17,3.7-8.78,8.58-8.79c4.64-0.01,8.48,3.66,8.56,8.72
			C278.59,200.24,274.66,204.28,270.01,204.29z M264.86,194.76c-0.15,2.79,0.76,5.05,2.72,6.86c1.77,1.63,3.91,1.54,5.58-0.18
			c2.93-3.01,2.57-8.74-0.64-11.87c-1.85-1.81-4.77-1.65-6.28,0.51C265.2,191.55,264.72,193.11,264.86,194.76z"/>
		<path d="M314.84,201.8c-0.17,1.65-1.5,2.09-2.46,2.3c-0.77,0.17-1.94-0.48-2.59-1.12c-0.69-0.68-0.93-0.81-1.82-0.25
			c-1.19,0.74-2.6,1.28-3.98,1.49c-1.58,0.24-3.39-1.14-3.79-2.45c-0.52-1.74,0.19-3.71,1.88-4.58c1.84-0.95,3.76-1.74,5.68-2.51
			c0.78-0.31,1.04-0.77,0.99-1.55c-0.05-0.78,0.02-1.57-0.04-2.35c-0.13-1.55-1.22-2.55-2.69-2.53c-1.29,0.02-2.59,1.22-2.62,2.57
			c-0.02,1.03-0.48,1.62-1.44,1.65c-0.54,0.02-1.21-0.18-1.58-0.53c-0.19-0.18,0.05-0.97,0.28-1.39c1.13-2.09,5.13-4.12,7.47-3.84
			c2.27,0.27,3.48,1.61,3.48,3.91c0.01,3.04,0,6.07,0,9.11C311.62,202.06,312.48,202.66,314.84,201.8z M308.74,196.06
			c-1.27,0.43-2.43,0.75-3.55,1.2c-1.32,0.54-2.21,2.11-1.76,3.28c0.42,1.08,1.38,1.58,2.57,1.48c1.66-0.14,2.7-1.16,2.74-2.64
			C308.76,198.32,308.74,197.25,308.74,196.06z"/>
		<path d="M253.25,117.63c-3.06,0-5.29-2.2-5.31-5.26c-0.03-2.93,2.36-5.34,5.29-5.35c2.92-0.01,5.33,2.39,5.34,5.31
			C258.58,115.28,256.21,117.64,253.25,117.63z"/>
		<path d="M446.92,117.63c-3.07,0.02-5.31-2.17-5.33-5.22c-0.03-2.98,2.27-5.33,5.24-5.39c2.91-0.05,5.34,2.34,5.36,5.27
			C452.2,115.28,449.9,117.62,446.92,117.63z"/>
		<path d="M365.81,191.67c-0.29-0.5-0.61-0.99-0.88-1.5c-0.97-1.86-2.86-2.6-4.42-1.72c-1.47,0.83-1.86,2.55-0.6,3.65
			c1.25,1.1,2.76,1.9,4.16,2.84c0.4,0.27,0.81,0.52,1.19,0.81c1.87,1.37,2.45,2.71,1.94,4.44c-0.62,2.14-2.72,4.01-4.63,4.1
			c-0.73,0.04-1.47,0.01-2.2,0.01c-3.1-0.01-4.15-1-4.26-4.03c-0.01-0.31,0.27-0.63,0.41-0.94c0.24,0.21,0.54,0.39,0.73,0.65
			c0.94,1.34,1.7,2.81,3.69,2.89c1.46,0.06,2.64-0.23,3.22-1.67c0.48-1.17-0.2-2.67-1.61-3.56c-1.14-0.72-2.35-1.33-3.51-2.03
			c-3.37-2.04-3.3-5.16-1.62-6.91c1.45-1.52,3.36-2.32,5.58-1.93C366.55,187.37,366.83,187.81,365.81,191.67z"/>
	</g>
</g>
</svg>
