<?xml version="1.0" encoding="utf-8"?>
<!-- Generator: Adobe Illustrator 23.0.1, SVG Export Plug-In . SVG Version: 6.00 Build 0)  -->
<svg version="1.1" xmlns="http://www.w3.org/2000/svg" xmlns:xlink="http://www.w3.org/1999/xlink" x="0px" y="0px"
	 viewBox="0 0 1280.24 1066.86" style="enable-background:new 0 0 1280.24 1066.86;" xml:space="preserve">
<style type="text/css">
	.st0{fill:#FAFAFA;}
	.st1{fill-rule:evenodd;clip-rule:evenodd;fill:#FFFFFF;}
</style>
<g id="background_1_">
	<path id="background" class="st0" d="M1260.38,1066.86H19.86C8.89,1066.86,0,1057.97,0,1047V19.86C0,8.89,8.89,0,19.86,0h1240.52
		c10.97,0,19.86,8.89,19.86,19.86V1047C1280.24,1057.97,1271.35,1066.86,1260.38,1066.86z"/>
</g>
<g id="WhatsApp_Logo_Icon">
	<g id="Icon_Shape">
		<defs>
			<path id="SVGID_1_" d="M584.98,533.81c0,3.2-0.1,10.13-0.29,15.49c-0.47,13.11-1.51,30.02-3.08,37.73
				c-2.36,11.58-5.93,22.51-10.58,31.61c-5.5,10.76-12.52,20.4-20.85,28.72c-8.32,8.3-17.95,15.29-28.7,20.77
				c-9.15,4.66-20.15,8.23-31.79,10.58c-7.63,1.54-24.42,2.56-37.44,3.02c-5.36,0.19-12.3,0.29-15.48,0.29l-287.58-0.05
				c-3.2,0-10.13-0.1-15.49-0.29c-13.11-0.47-30.02-1.51-37.73-3.08c-11.58-2.36-22.51-5.93-31.61-10.58
				c-10.76-5.5-20.4-12.52-28.72-20.85c-8.3-8.32-15.29-17.95-20.77-28.7c-4.66-9.15-8.23-20.15-10.58-31.79
				c-1.54-7.63-2.56-24.42-3.02-37.44c-0.19-5.36-0.29-12.3-0.29-15.48l0.05-287.58c0-3.2,0.1-10.13,0.29-15.49
				c0.47-13.11,1.51-30.02,3.08-37.73c2.36-11.58,5.93-22.51,10.57-31.61c5.5-10.76,12.52-20.4,20.85-28.72
				c8.32-8.3,17.95-15.29,28.7-20.77c9.15-4.66,20.15-8.23,31.79-10.58c7.63-1.54,24.42-2.56,37.44-3.02
				c5.36-0.19,12.3-0.29,15.48-0.29l287.58,0.05c3.2,0,10.13,0.1,15.49,0.29c13.11,0.47,30.02,1.51,37.73,3.08
				c11.58,2.36,22.51,5.93,31.61,10.58c10.76,5.5,20.4,12.52,28.72,20.85c8.3,8.32,15.29,17.95,20.77,28.7
				c4.66,9.15,8.23,20.15,10.58,31.79c1.54,7.63,2.56,24.42,3.02,37.44c0.19,5.36,0.29,12.3,0.29,15.48L584.98,533.81z"/>
		</defs>
		<linearGradient id="SVGID_2_" gradientUnits="userSpaceOnUse" x1="293.0002" y1="682.0223" x2="293.0002" y2="97.9776">
			<stop  offset="0" style="stop-color:#25CF43"/>
			<stop  offset="1" style="stop-color:#61FD7D"/>
		</linearGradient>
		<use xlink:href="#SVGID_1_"  style="overflow:visible;fill-rule:evenodd;clip-rule:evenodd;fill:url(#SVGID_2_);"/>
		<clipPath id="SVGID_3_">
			<use xlink:href="#SVGID_1_"  style="overflow:visible;"/>
		</clipPath>
	</g>
	<g id="WA_Logo">
		<g>
			<path class="st1" d="M446.6,237.79c-39.31-39.34-91.58-61.01-147.27-61.04c-114.75,0-208.14,93.36-208.19,208.11
				c-0.01,36.68,9.57,72.49,27.79,104.05L89.39,596.75l110.36-28.94c30.41,16.58,64.64,25.32,99.49,25.33h0.09c0.01,0-0.01,0,0,0
				c114.74,0,208.14-93.37,208.19-208.12C507.54,329.41,485.9,277.12,446.6,237.79z M299.33,557.99h-0.07
				c-31.05-0.01-61.5-8.35-88.07-24.11l-6.32-3.75l-65.49,17.17l17.48-63.83l-4.11-6.54c-17.32-27.54-26.47-59.37-26.46-92.06
				c0.04-95.38,77.66-172.97,173.11-172.97c46.22,0.02,89.66,18.03,122.33,50.73c32.67,32.7,50.65,76.16,50.63,122.38
				C472.33,480.39,394.7,557.99,299.33,557.99z M394.24,428.44c-5.2-2.6-30.78-15.18-35.55-16.92c-4.77-1.74-8.24-2.6-11.7,2.6
				c-3.47,5.21-13.44,16.92-16.47,20.39c-3.03,3.47-6.07,3.9-11.27,1.3c-5.2-2.6-21.96-8.09-41.83-25.81
				c-15.46-13.79-25.9-30.82-28.94-36.03s-0.32-8.02,2.28-10.61c2.34-2.33,5.2-6.07,7.8-9.11c2.6-3.04,3.47-5.21,5.2-8.68
				c1.73-3.47,0.87-6.51-0.43-9.11c-1.3-2.6-11.7-28.2-16.04-38.61c-4.22-10.14-8.51-8.77-11.7-8.93c-3.03-0.15-6.5-0.18-9.97-0.18
				c-3.47,0-9.1,1.3-13.87,6.51c-4.77,5.21-18.21,17.79-18.21,43.38c0,25.6,18.64,50.32,21.24,53.79c2.6,3.47,36.68,56,88.86,78.52
				c12.41,5.36,22.1,8.56,29.65,10.95c12.46,3.96,23.8,3.4,32.77,2.06c9.99-1.49,30.78-12.58,35.11-24.73
				c4.33-12.15,4.33-22.56,3.03-24.73C402.91,432.35,399.44,431.04,394.24,428.44z"/>
		</g>
	</g>
	<polyline class="st1" points="110.93,97.98 457.93,97.98 484.1,100.48 507.52,106.08 530.75,117.16 550.36,132.82 	"/>
</g>
</svg>
